<?xml version="1.0" standalone="no"?>
<!DOCTYPE svg PUBLIC "-//W3C//DTD SVG 20010904//EN"
 "http://www.w3.org/TR/2001/REC-SVG-20010904/DTD/svg10.dtd">
<svg version="1.0" xmlns="http://www.w3.org/2000/svg"
 width="16.000000pt" height="16.000000pt" viewBox="0 0 16.000000 16.000000"
 preserveAspectRatio="xMidYMid meet">
<metadata>
Created by potrace 1.11, written by Peter Selinger 2001-2013
</metadata>
<g transform="translate(0.000000,16.000000) scale(0.000940,-0.000940)"
fill="#000000" stroke="none">
<path d="M3922 15026 c-227 -44 -422 -141 -582 -292 -104 -98 -152 -165 -312
-440 l-142 -244 -127 0 c-206 0 -386 -39 -592 -129 -265 -115 -625 -441 -821
-743 -79 -121 -160 -295 -191 -408 -36 -129 -44 -303 -21 -421 41 -200 152
-369 334 -505 42 -32 80 -61 84 -64 4 -3 -120 -223 -276 -490 l-283 -485 -49
-6 c-59 -8 -100 -27 -135 -66 -32 -35 -322 -505 -344 -556 -22 -53 -19 -106
11 -165 30 -60 46 -72 244 -186 l136 -78 33 -73 c71 -159 210 -331 350 -434
88 -64 313 -194 403 -233 40 -16 115 -42 167 -56 86 -23 116 -26 286 -27 l190
-1 83 -49 c48 -29 82 -56 82 -65 0 -38 44 -181 78 -255 20 -44 58 -107 83
-140 l45 -60 -27 -395 c-43 -604 -89 -1244 -99 -1355 -4 -55 -11 -152 -15
-215 -6 -112 -22 -330 -69 -950 l-23 -305 -242 -815 c-134 -448 -330 -1109
-437 -1469 -162 -545 -211 -694 -289 -890 -129 -325 -158 -413 -153 -478 5
-58 37 -108 90 -141 18 -11 366 -115 773 -231 407 -116 783 -224 835 -240 246
-75 513 -102 647 -66 120 33 175 114 139 208 -31 81 -65 110 -229 191 -229
113 -525 312 -1011 680 -289 220 -266 201 -266 213 0 9 249 642 275 698 7 17
208 520 445 1120 417 1052 449 1139 937 2510 278 781 506 1422 508 1424 4 4
1357 -378 1365 -385 3 -3 7 -807 8 -1787 4 -1752 4 -1785 -17 -1992 -12 -115
-25 -261 -29 -323 -5 -62 -13 -117 -18 -121 -5 -5 -589 -237 -1299 -516 -710
-279 -1292 -509 -1294 -511 -8 -7 285 -241 480 -384 1717 -1249 3817 -1787
5929 -1519 2592 329 4888 1887 6172 4189 553 991 898 2109 1003 3250 129 1406
-101 2814 -670 4105 -65 149 -254 533 -265 540 -7 4 -194 -161 -516 -456 -82
-75 -185 -167 -229 -205 -43 -38 -485 -433 -980 -879 -2421 -2177 -3861 -3473
-3875 -3486 -8 -9 -69 -168 -135 -353 -112 -315 -120 -336 -131 -310 -6 16
-365 1046 -797 2289 -432 1243 -793 2277 -801 2297 -9 21 -16 44 -16 51 0 8
29 24 70 38 46 15 70 29 69 39 0 8 -19 69 -43 135 l-43 120 -94 -5 c-52 -3
-154 -5 -226 -4 -96 1 -133 -2 -133 -11 0 -10 129 -386 134 -393 2 -1 33 9 71
23 37 14 69 24 70 23 7 -8 1675 -4817 1675 -4829 0 -8 -150 -434 -333 -948
l-332 -934 -265 -104 c-413 -162 -1129 -444 -1669 -657 -107 -42 -195 -75
-197 -73 -1 2 203 6064 205 6076 1 2 37 1 81 -1 54 -3 80 -1 80 6 1 6 9 252
19 546 11 294 18 536 18 536 -1 1 -99 5 -219 9 l-216 7 -6 -54 c-3 -29 -10
-217 -16 -418 -6 -201 -13 -422 -16 -491 l-7 -126 72 -5 c39 -3 73 -7 75 -9 5
-5 -201 -6130 -206 -6134 -2 -1 -18 -7 -36 -13 -31 -11 -52 -5 -253 70 -190
70 -219 84 -219 102 0 12 126 912 281 2001 278 1965 280 1979 260 1995 -11 8
-454 377 -985 820 -858 716 -966 809 -973 840 -4 19 -8 168 -8 330 0 328 10
426 70 725 31 155 115 469 134 502 5 10 25 -12 65 -72 57 -86 58 -87 78 -68
11 10 205 201 431 424 l411 406 -121 179 c-66 98 -221 330 -345 514 -124 184
-289 429 -366 544 l-142 209 40 71 c40 73 110 266 110 304 0 12 4 23 8 26 5 3
54 -30 108 -74 109 -87 200 -139 261 -147 68 -9 316 85 490 187 47 27 57 39
93 116 40 82 79 124 118 124 7 0 50 -17 95 -38 45 -21 142 -64 215 -96 78 -33
173 -84 230 -122 108 -73 238 -139 293 -149 22 -4 46 -2 59 5 57 31 -14 191
-207 466 l-64 90 -4 125 c-8 249 -90 440 -257 594 -272 252 -686 343 -988 216
-132 -55 -280 -169 -369 -284 -43 -57 -151 -290 -151 -329 0 -16 -12 -2 -38
48 -77 144 -192 280 -317 372 -33 24 -114 76 -180 115 -264 155 -392 197 -630
203 -101 2 -174 -1 -223 -10z m327 -1441 c121 -29 332 -154 415 -246 178 -198
222 -481 110 -713 -35 -73 -187 -325 -193 -322 -102 53 -1200 663 -1209 671
-10 9 7 46 90 186 84 143 117 188 183 254 87 88 183 143 292 169 77 19 233 19
312 1z m-395 -1145 c345 -190 605 -340 604 -347 -5 -21 -673 -1142 -681 -1143
-4 0 -282 152 -617 337 -589 326 -608 338 -597 359 51 95 673 1133 678 1131 4
-1 280 -153 613 -337z m-807 -1356 c335 -185 609 -337 610 -338 2 -2 -66 -119
-150 -261 -132 -225 -162 -269 -232 -340 -64 -66 -97 -90 -165 -124 -240 -117
-458 -91 -730 87 -236 153 -349 438 -281 705 24 92 31 105 188 370 123 207
142 237 149 237 2 0 277 -151 611 -336z"/>
<path d="M7915 12367 c-110 -39 -202 -72 -204 -73 -5 -5 79 -256 90 -268 13
-14 86 51 149 134 68 89 129 145 176 160 l32 11 -15 47 c-9 26 -18 50 -22 53
-3 3 -96 -26 -206 -64z"/>
</g>
</svg>
